<svg width="64" height="64" viewBox="0 0 64 64" fill="none" xmlns="http://www.w3.org/2000/svg">
  <defs>
    <linearGradient id="readywiseGradient" x1="8" y1="8" x2="56" y2="56" gradientUnits="userSpaceOnUse">
      <stop stop-color="#2563EB"/>
      <stop offset="0.55" stop-color="#4F46E5"/>
      <stop offset="1" stop-color="#7C3AED"/>
    </linearGradient>

    <linearGradient id="readywiseEye" x1="18" y1="22" x2="46" y2="44" gradientUnits="userSpaceOnUse">
      <stop stop-color="#FFFFFF"/>
      <stop offset="1" stop-color="#EEF2FF"/>
    </linearGradient>
  </defs>

  <path
    d="M15.2 16.8C17.8 13.8 22.2 13.1 25.6 15.1C27.4 13.9 29.6 13.2 32 13.2C34.4 13.2 36.6 13.9 38.4 15.1C41.8 13.1 46.2 13.8 48.8 16.8C48.1 19.2 46.8 21.4 45.1 23.1C46.3 25.5 47 28.3 47 31.2C47 41.1 40.3 49.2 32 49.2C23.7 49.2 17 41.1 17 31.2C17 28.3 17.7 25.5 18.9 23.1C17.2 21.4 15.9 19.2 15.2 16.8Z"
    fill="url(#readywiseGradient)"
  />

  <path
    d="M20.8 26.8C23.2 23.8 27.8 23.6 30.1 27.2C27.9 28.6 26.5 30.8 25.8 33.2C23.1 33 20.9 30.8 20.8 28.1V26.8Z"
    fill="url(#readywiseEye)"
  />

  <path
    d="M43.2 26.8C40.8 23.8 36.2 23.6 33.9 27.2C36.1 28.6 37.5 30.8 38.2 33.2C40.9 33 43.1 30.8 43.2 28.1V26.8Z"
    fill="url(#readywiseEye)"
  />

  <circle cx="25.8" cy="28.8" r="2.7" fill="#020617"/>
  <circle cx="38.2" cy="28.8" r="2.7" fill="#020617"/>

  <path
    d="M32 32.2L36.4 37.4C34.9 38.6 33.4 39.2 32 39.2C30.6 39.2 29.1 38.6 27.6 37.4L32 32.2Z"
    fill="#FBBF24"
  />

  <path
    d="M24.5 43.1C26.7 45 29.2 46 32 46C34.8 46 37.3 45 39.5 43.1"
    stroke="#C7D2FE"
    stroke-width="3"
    stroke-linecap="round"
  />
</svg>
